<svg xmlns="http://www.w3.org/2000/svg" width="640" height="640" viewBox="0 0 640 640"><title>640 kurdistan</title><g class="nc-icon-wrapper"><path fill="#fff" stroke-width="0" d="M20 220h600v200h-600z"></path><path d="M100 80h440c44.16 0 80 35.84 80 80v80h-600v-80c0-44.16 35.84-80 80-80z" fill="#ed1b1e" stroke-width="0"></path><path d="M540 560h-440c-44.16 0-80-35.84-80-80v-80h600v80c0 44.16-35.84 80-80 80z" fill="#248f41" stroke-width="0"></path><path d="M540 80h-440a80 80 0 0 0-80 80v320a80 80 0 0 0 80 80h440a80 80 0 0 0 80-80v-320a80 80 0 0 0-80-80z m60 400c0 33.08-26.92 60-60 60h-440c-33.08 0-60-26.92-60-60v-320c0-33.08 26.92-60 60-60h440c33.08 0 60 26.92 60 60v320z" opacity=".15" stroke-width="0" fill="#000000"></path><path d="M540 100h-440a60 60 0 0 0-60 60v20a60 60 0 0 1 60-60h440a60 60 0 0 1 60 60v-20a60 60 0 0 0-60-60z" fill="#fff" opacity=".2" stroke-width="0"></path><path d="M320 187.04l9.96 67.6 29.46-61.66-10.4 67.54 46.3-50.26-29.84 61.48 59.06-34.36-46.64 49.94 66.56-15.42-59.28 33.96 68.16 4.9-66.68 15 63.7 24.74-68.12-5.32 53.56 42.42-63.52-25.18 38.66 56.34-53.28-42.78 20.36 65.24-38.32-56.6 0.22 68.34-19.92-65.36-19.92 65.36 0.2-68.34-38.3 56.6 20.36-65.24-53.28 42.78 38.68-56.34-63.54 25.18 53.56-42.42-68.12 5.32 63.7-24.76-66.68-15 68.16-4.88-59.28-33.96 66.56 15.4-46.64-49.92 59.06 34.36-29.84-61.46 46.32 50.24-10.4-67.54 29.44 61.66 9.96-67.6z" fill="#f3bf45" stroke-width="0"></path></g></svg>